<?xml version="1.0" encoding="utf-8" ?>
<svg xmlns="http://www.w3.org/2000/svg" xmlns:xlink="http://www.w3.org/1999/xlink" width="1024" height="1024">
	<path transform="scale(2 2)" d="M101.22 154.453C105.99 141.772 116.281 127.455 125.045 117.199C157.257 79.5014 199.608 60.2536 248.13 56.4799C303.905 56.3061 350.078 74.0539 387.476 117.43C394.245 125.281 408.057 143.288 410.938 153.459C436.932 147.546 461.99 138.086 487.997 132.356C488.188 136.463 488.013 140.614 488.007 144.727L488.009 183.812C488.032 186.924 488.242 190.054 487.997 193.159C480.468 193.931 472.447 196.093 465.016 197.683L386.987 214.647C382.733 215.583 378.39 215.899 374.28 217.409C373.991 212.582 372.698 207.824 371.513 203.151C357.866 149.36 317.665 116.003 263.312 111.231C197.454 110.016 147.28 151.364 138.674 217.409C134.503 217.102 130.32 216.004 126.242 215.113L51.1056 198.642C43.0664 196.826 31.6106 193.598 23.5951 193.159C22.9747 173.786 23.2352 151.555 24.3173 132.356C28.9991 133.248 33.5402 134.771 38.0866 136.178L87.1584 150.551C91.8358 151.886 96.5691 153.03 101.22 154.453Z"/>
	<path transform="scale(2 2)" d="M263.312 303.28C257.764 303.502 252.21 303.58 246.686 302.913C188.192 295.853 159.04 224.807 195.249 178.126C209.585 159.644 227.525 150.614 250.417 147.725C298.063 144.185 338.901 186.319 333.178 234.093C328.728 271.238 300.461 298.865 263.312 303.28Z"/>
	<path transform="scale(2 2)" d="M23.5951 310.196L23.5951 255.324L163.8 255.324C166.191 259.049 168.12 263.199 170.326 267.05C186.804 295.816 205.964 323.155 223.663 351.176C229.26 360.036 244.797 385.978 251.743 392.896C254.68 393.575 258.146 393.474 261.093 392.896C263.897 389.731 266.133 385.769 268.411 382.21L311.714 315.892C323.915 296.945 338.983 275.215 348.816 255.324C353.989 255.185 359.204 255.318 364.382 255.319L487.997 255.324C488.272 273.598 488.001 291.917 487.997 310.196L484.125 310.196L379.179 310.196C376.689 313.547 374.575 317.292 372.327 320.819L344.763 362.612C331.768 382.402 301.308 434.336 283.341 444.816C261.45 457.584 235.03 453.587 217.568 435.609C203.139 420.752 181.93 384.627 170.232 366.625L146.613 330.93C142.078 324.078 137.412 317.283 133.251 310.196C129.507 309.855 125.539 310.176 121.766 310.184L23.5951 310.196Z"/>
</svg>
